<svg width="90" height="30" viewBox="0 0 90 30" fill="none" xmlns="http://www.w3.org/2000/svg">
<g clip-path="url(#clip0_111_63)">
<path d="M35.32 22.12C31.16 22.12 28.64 19.3 28.64 15C28.64 10.7 31.26 7.88 35.5 7.88C38.82 7.88 41.16 9.96 41.52 13H38.48C38.12 11.44 37 10.42 35.34 10.42C33.06 10.42 31.7 12.3 31.7 15C31.7 17.68 33.04 19.58 35.3 19.58C37 19.58 38.12 18.56 38.48 17H41.5C41.16 20.04 38.74 22.12 35.32 22.12ZM41.5761 22L46.6961 8H50.2961L55.3761 22H52.1561L51.0761 18.94H45.7561L44.6761 22H41.5761ZM46.5561 16.52H50.2561L48.3961 11.2L46.5561 16.52ZM62.3609 8C65.4009 8 67.4209 9.82 67.4209 12.66C67.4209 15.48 65.4009 17.3 62.3609 17.3H59.6609V22H56.6609V8H62.3609ZM59.6609 10.5V14.8H62.0809C63.4809 14.8 64.3809 13.98 64.3809 12.66C64.3809 11.32 63.4809 10.5 62.0809 10.5H59.6609Z" fill="white"/>
<path d="M0 4C0 1.79086 1.79086 0 4 0H86C88.2091 0 90 1.79086 90 4V26C90 28.2091 88.2091 30 86 30H4C1.79086 30 0 28.2091 0 26V4Z" fill="#8ADAF9"/>
<path d="M24.8638 21.096C21.5358 21.096 19.5198 18.84 19.5198 15.4C19.5198 11.96 21.6158 9.704 25.0078 9.704C27.6638 9.704 29.5358 11.368 29.8238 13.8H27.3918C27.1038 12.552 26.2078 11.736 24.8798 11.736C23.0558 11.736 21.9678 13.24 21.9678 15.4C21.9678 17.544 23.0398 19.064 24.8478 19.064C26.2078 19.064 27.1038 18.248 27.3918 17H29.8078C29.5358 19.432 27.5998 21.096 24.8638 21.096ZM29.8687 21L33.9647 9.8H36.8447L40.9087 21H38.3327L37.4687 18.552H33.2127L32.3487 21H29.8687ZM33.8527 16.616H36.8127L35.3247 12.36L33.8527 16.616ZM46.3482 21.096C43.0202 21.096 41.0042 18.84 41.0042 15.4C41.0042 11.96 43.1002 9.704 46.4922 9.704C49.1482 9.704 51.0202 11.368 51.3082 13.8H48.8762C48.5882 12.552 47.6922 11.736 46.3642 11.736C44.5402 11.736 43.4522 13.24 43.4522 15.4C43.4522 17.544 44.5242 19.064 46.3322 19.064C47.6922 19.064 48.5882 18.248 48.8762 17H51.2922C51.0202 19.432 49.0842 21.096 46.3482 21.096ZM52.6553 9.8H55.0553V14.296H59.5033V9.8H61.9033V21H59.5033V16.376H55.0553V21H52.6553V9.8ZM63.8116 9.8H71.3316V11.864H66.2116V14.376H70.3716V16.344H66.2116V18.936H71.5076V21H63.8116V9.8Z" fill="#201C51"/>
</g>
<defs>
<clipPath id="clip0_111_63">
<rect width="90" height="30" fill="white"/>
</clipPath>
</defs>
</svg>
