<svg width="90" height="30" viewBox="0 0 90 30" fill="none" xmlns="http://www.w3.org/2000/svg">
<g clip-path="url(#clip0_111_67)">
<path d="M0 4C0 1.79086 1.79086 0 4 0H86C88.2091 0 90 1.79086 90 4V26C90 28.2091 88.2091 30 86 30H4C1.79086 30 0 28.2091 0 26V4Z" fill="#1D164C"/>
<path d="M33.856 20.096C30.528 20.096 28.512 17.84 28.512 14.4C28.512 10.96 30.608 8.704 34 8.704C36.656 8.704 38.528 10.368 38.816 12.8H36.384C36.096 11.552 35.2 10.736 33.872 10.736C32.048 10.736 30.96 12.24 30.96 14.4C30.96 16.544 32.032 18.064 33.84 18.064C35.2 18.064 36.096 17.248 36.384 16H38.8C38.528 18.432 36.592 20.096 33.856 20.096ZM38.8609 20L42.9569 8.8H45.8369L49.9009 20H47.3249L46.4609 17.552H42.2049L41.3409 20H38.8609ZM42.8449 15.616H45.8049L44.3169 11.36L42.8449 15.616ZM55.4888 8.8C57.9208 8.8 59.5368 10.256 59.5368 12.528C59.5368 14.784 57.9208 16.24 55.4888 16.24H53.3288V20H50.9288V8.8H55.4888ZM53.3288 10.8V14.24H55.2648C56.3848 14.24 57.1048 13.584 57.1048 12.528C57.1048 11.456 56.3848 10.8 55.2648 10.8H53.3288Z" fill="white"/>
</g>
<defs>
<clipPath id="clip0_111_67">
<rect width="90" height="30" fill="white"/>
</clipPath>
</defs>
</svg>
